<svg class="svg" xmlns="http://www.w3.org/2000/svg" xmlns:xlink="http://www.w3.org/1999/xlink" width="64px" height="64px" viewBox="0 0 64 64" version="1.1">
<g id="surface1">
<path style=" stroke:none;fill-rule:nonzero;fill:#FFFFFF;fill-opacity:1;" d="M 47.179688 29.664062 L 46.339844 29.28125 C 45.84375 20.179688 40.871094 14.96875 32.519531 14.914062 L 32.40625 14.914062 C 27.410156 14.914062 23.257812 17.046875 20.699219 20.925781 L 25.292969 24.078125 C 27.203125 21.179688 30.203125 20.5625 32.410156 20.5625 L 32.484375 20.5625 C 35.234375 20.578125 37.3125 21.378906 38.652344 22.9375 C 39.632812 24.074219 40.285156 25.640625 40.609375 27.621094 C 38.171875 27.207031 35.535156 27.078125 32.714844 27.242188 C 24.773438 27.699219 19.671875 32.328125 20.011719 38.761719 C 20.1875 42.027344 21.8125 44.835938 24.589844 46.671875 C 26.941406 48.21875 29.964844 48.980469 33.109375 48.808594 C 37.261719 48.578125 40.519531 46.996094 42.792969 44.097656 C 44.519531 41.898438 45.613281 39.046875 46.09375 35.453125 C 48.074219 36.648438 49.539062 38.222656 50.347656 40.109375 C 51.726562 43.320312 51.808594 48.601562 47.5 52.902344 C 43.726562 56.671875 39.191406 58.300781 32.335938 58.351562 C 24.734375 58.296875 18.984375 55.859375 15.246094 51.105469 C 11.746094 46.65625 9.9375 40.226562 9.867188 32 C 9.9375 23.773438 11.746094 17.34375 15.246094 12.894531 C 18.984375 8.140625 24.734375 5.703125 32.335938 5.648438 C 39.996094 5.703125 45.847656 8.152344 49.726562 12.929688 C 51.632812 15.269531 53.066406 18.214844 54.011719 21.648438 L 59.394531 20.214844 C 58.246094 15.988281 56.445312 12.34375 53.988281 9.324219 C 49.011719 3.203125 41.734375 0.0664062 32.355469 0 L 32.320312 0 C 22.960938 0.0664062 15.765625 3.214844 10.929688 9.359375 C 6.628906 14.828125 4.40625 22.4375 4.332031 31.976562 L 4.332031 32.023438 C 4.410156 41.5625 6.628906 49.171875 10.929688 54.640625 C 15.765625 60.785156 22.960938 63.933594 32.320312 64 L 32.355469 64 C 40.675781 63.941406 46.542969 61.765625 51.371094 56.9375 C 57.695312 50.621094 57.503906 42.707031 55.421875 37.847656 C 53.925781 34.363281 51.074219 31.53125 47.179688 29.664062 Z M 32.8125 43.167969 C 29.332031 43.363281 25.71875 41.804688 25.539062 38.457031 C 25.40625 35.976562 27.304688 33.207031 33.027344 32.878906 C 33.667969 32.839844 34.3125 32.824219 34.957031 32.824219 C 37.035156 32.824219 38.980469 33.023438 40.746094 33.410156 C 40.089844 41.644531 36.21875 42.980469 32.8125 43.167969 Z M 32.8125 43.167969 "/>
</g>
</svg>
